<?xml version="1.0" encoding="UTF-8" standalone="no"?>
<!-- Created with Inkscape (http://www.inkscape.org/) -->

<svg
   width="137.50134mm"
   height="60.736042mm"
   viewBox="0 0 137.50134 60.736044"
   version="1.1"
   id="svg5"
   inkscape:version="1.3.2 (091e20ef0f, 2023-11-25)"
   sodipodi:docname="selo-spix.svg"
   xml:space="preserve"
   xmlns:inkscape="http://www.inkscape.org/namespaces/inkscape"
   xmlns:sodipodi="http://sodipodi.sourceforge.net/DTD/sodipodi-0.dtd"
   xmlns="http://www.w3.org/2000/svg"
   xmlns:svg="http://www.w3.org/2000/svg"><sodipodi:namedview
     id="namedview7"
     pagecolor="#ffffff"
     bordercolor="#999999"
     borderopacity="1"
     inkscape:showpageshadow="0"
     inkscape:pageopacity="0"
     inkscape:pagecheckerboard="0"
     inkscape:deskcolor="#d1d1d1"
     inkscape:document-units="mm"
     showgrid="false"
     inkscape:zoom="0.32"
     inkscape:cx="685.9375"
     inkscape:cy="54.6875"
     inkscape:window-width="1920"
     inkscape:window-height="1011"
     inkscape:window-x="1440"
     inkscape:window-y="32"
     inkscape:window-maximized="1"
     inkscape:current-layer="svg5" /><defs
     id="defs2" /><path
     id="path7669"
     style="font-size:144.814px;line-height:1.25;font-family:Bungee;-inkscape-font-specification:Bungee;fill:#ffffff;fill-opacity:1;stroke-width:0.285645"
     inkscape:label="contorno"
     d="m 118.77362,0.00515773 c -2.27156,0.01071778 -4.6175,0.10884799 -6.72652,1.04136707 -2.33049,0.9660737 -4.34627,2.6322497 -5.81998,4.6719688 C 103.75316,4.3559187 101.26319,3.0217668 98.759433,1.7154584 96.92336,0.8310254 94.893381,0.28948575 92.844694,0.36467308 91.104134,0.3488047 89.355544,0.36902836 87.627482,0.59013281 85.534257,0.93376842 83.459552,1.9959878 82.290101,3.8171778 81.456425,5.0836107 81.083877,6.6359055 81.204121,8.1439165 79.254053,7.7989819 77.268801,8.0373143 75.302523,8.0084862 74.570609,8.018901 73.83877,8.0292022 73.106855,8.039617 69.601382,5.2603102 65.78108,2.8133305 61.589972,1.2060418 59.521137,0.49156708 57.300738,0.38460512 55.132337,0.51382068 49.547577,0.60445601 43.959257,0.58552757 38.378473,0.83282432 34.731777,1.4318007 31.83203,4.9189545 31.864297,8.6067846 31.853693,8.9257353 31.835893,9.244364 31.827182,9.5634093 30.492118,8.8171675 29.017798,8.220009 27.465234,8.2235841 25.645938,8.1515553 23.827323,8.2996501 22.007686,8.278188 18.724257,8.3413623 15.422119,8.2490265 12.161149,8.6989614 9.183915,9.249329 6.2723895,10.635366 4.2834643,12.966006 2.2674984,15.467287 1.2501422,18.618448 0.76053265,21.755304 0.20873724,25.36961 0.29690332,29.168712 1.6077299,32.61755 c 0.636553,1.575783 1.562524,3.060927 2.8421062,4.194441 -2.6093069,1.419623 -4.3264624,4.330994 -4.37978621,7.274112 -0.15792635,2.044805 -0.11725179,4.212006 0.85624861,6.070113 1.212435,2.406639 3.3809873,4.186518 5.7162521,5.449716 2.8995202,1.561002 6.1124694,2.63773 9.4218404,2.761458 1.993659,0.09115 3.990462,0.06768 5.984386,0.155196 3.27593,0.08554 6.558602,0.23219 9.832827,0.0317 2.996549,-0.30498 6.003472,-1.420538 8.173198,-3.565038 1.157331,-1.133127 2.073229,-2.499512 2.75519,-3.964871 1.913371,0.709127 3.971677,0.937525 6.002186,0.887932 1.922952,0.07273 3.94759,0.140426 5.72981,-0.705529 2.75235,-1.257692 4.583235,-4.224257 4.552369,-7.240261 0.0737,-1.672542 0.025,-3.347705 0.08945,-5.020527 0.991527,0.0306 1.988546,0.02537 2.982384,0.0454 0.751154,0.01045 1.541846,-0.0063 2.267095,-0.03639 -0.02802,2.799527 -0.05647,5.601406 0.0064,8.401205 0.03068,0.800751 0.02386,1.608031 0.108239,2.403699 0.526572,2.564455 2.256566,4.741139 4.351988,6.241749 2.22945,1.627876 4.713097,2.863076 7.217347,4.004013 3.017189,0.810435 6.1678,0.5327 9.253121,0.709642 1.954613,0.07051 4.020873,0.0091 5.774196,-0.961518 2.351928,-1.277169 3.964065,-3.800268 4.159409,-6.466622 1.753588,0.525327 3.604621,0.385488 5.410584,0.457373 1.73265,0.03813 3.50271,-0.100531 5.12424,-0.755634 2.27744,-0.844311 4.24883,-2.436921 5.63407,-4.424005 1.65221,1.038326 3.42852,1.871135 5.14128,2.807449 2.03967,1.112737 4.09476,2.317079 6.40105,2.774175 2.30054,0.394301 4.64618,0.322685 6.9708,0.337989 2.77046,-0.167307 5.45263,-1.829836 6.66859,-4.352961 1.26587,-2.476054 1.11752,-5.640065 -0.4795,-7.934632 -1.07651,-1.692172 -2.46914,-3.150105 -3.64037,-4.773737 -2.20181,-2.829098 -4.40361,-5.658217 -6.60538,-8.487318 3.33217,-4.523189 6.75073,-8.984714 9.95239,-13.600803 1.13029,-2.041256 1.47625,-4.612468 0.53191,-6.7913022 -0.83049,-1.8645913 -2.53935,-3.1800004 -4.36509,-3.9930559 -2.74833,-1.4186596 -5.38741,-3.078473 -8.28905,-4.17701928 -1.62202,-0.43836112 -3.32194,-0.3711307 -4.98589,-0.36851753 z m 1.72303,4.15255387 c 4.35233,-0.057797 5.88849,2.6120109 3.40064,5.9603224 l -10.77417,14.500873 c -0.10525,0.141838 -0.10112,0.33539 0.0106,0.478702 l 11.60967,14.901485 c 2.05744,2.640794 0.21996,6.255451 -3.13546,6.165426 L 117.536,46.055316 c -2.6246,-0.07042 -5.10514,-1.343665 -6.67975,-3.418454 l -5.55776,-7.323236 -5.25107,7.067054 c -1.467841,1.975542 -3.830563,3.102946 -6.349204,3.035447 l -3.858175,-0.103531 c -3.136826,-0.08403 -4.955782,-3.650973 -3.136826,-6.107493 L 97.228646,24.989969 c 0.103467,-0.139706 0.101194,-0.330244 -0.0057,-0.471268 L 86.505902,10.400639 C 84.09387,7.2230696 85.425034,4.6232156 89.490104,4.5692897 l 3.768153,-0.050101 c 2.160902,-0.028631 4.977823,1.3061948 6.288536,2.9882808 l 5.388847,6.9149885 5.20078,-7.0238024 c 1.28128,-1.7305357 4.13801,-3.1583793 6.38893,-3.1882982 z M 56.380561,4.6538352 h 2.28e-4 c 5.656262,0.067761 10.18765,4.6642997 10.153187,10.4631958 l -0.02878,4.886075 c -0.03522,5.964177 -4.838189,10.732962 -10.704907,10.656555 l -8.050267,-0.104705 c -0.225338,-0.003 -0.411139,0.182581 -0.414926,0.414514 l -0.149708,8.942534 c -0.03522,2.109778 -1.703446,3.768505 -3.732364,3.71456 L 38.762839,43.5017 C 36.761948,43.4485 35.19647,41.724843 35.245363,39.64134 L 35.975154,8.5429665 c 0.04707,-2.0063539 1.656371,-3.6395509 3.615527,-3.6660234 l 16.519626,-0.222911 c 0.09036,-0.00151 0.18046,-0.00151 0.270254,-1.969e-4 z m 23.001726,7.4619968 c 2.138596,-0.0289 3.874346,1.640457 3.883814,3.747634 l 0.14505,32.692816 c 0.0098,2.192419 -1.75124,3.914244 -3.939826,3.856054 L 72.37157,52.223673 c -2.148443,-0.05713 -3.864576,-1.845383 -3.855865,-4.00499 l 0.127402,-32.212742 c 0.0083,-2.076845 1.699393,-3.767998 3.7997,-3.796364 z m -51.873879,0.248161 1.89e-4,1.93e-4 c 1.776653,-0.02397 3.592389,1.882762 3.543686,3.732564 l -0.06321,2.402526 c 0,0.06361 -0.0042,0.143186 -0.01022,0.235439 -0.09945,1.758209 -1.894397,3.536092 -3.586594,3.581671 -0.06351,0.0015 -0.119752,0.0023 -0.166751,0.0027 l -9.780943,0.02977 c -0.426893,0.0011 -1.331807,0.09146 -1.382859,1.559604 -0.05113,1.470617 0.846819,1.628297 1.273258,1.663139 l 7.38156,1.053111 c 2.337045,0.354725 4.218035,1.168019 5.638577,2.443231 3.763608,3.378817 2.88475,15.0673 -1.044473,18.943858 -0.04245,0.04192 -0.08536,0.08085 -0.128613,0.116449 -1.92246,1.577006 -4.513437,2.320896 -7.75888,2.234605 L 7.5078128,49.992715 c -0.6209876,-0.01651 -2.857255,-0.21701 -3.3881071,-3.917903 l 0.094718,-2.307016 c 0.076123,-1.853601 1.9295418,-3.769402 3.6826757,-3.741566 l 11.4853736,0.182399 c 0.216779,0.0034 1.26466,-0.243184 1.351198,-1.519486 0.08642,-1.274582 -0.810651,-1.778117 -1.242392,-1.818723 l -7.38959,-1.192848 C 9.8285348,35.303605 8.0224557,34.484349 6.6795895,33.222794 3.2229717,29.895707 4.1015271,18.605946 7.9750021,15.015974 c 0.019315,-0.0178 0.038592,-0.03488 0.057906,-0.05128 1.8264163,-1.582271 4.3048379,-2.39569 7.4485189,-2.438145 z" /></svg>
