<?xml version="1.0" encoding="UTF-8" standalone="no"?>
<!-- Created with Inkscape (http://www.inkscape.org/) -->

<svg
   width="100"
   height="80"
   viewBox="0 0 26.458334 21.166666"
   version="1.1"
   id="svg1"
   sodipodi:docname="grip.svg"
   inkscape:version="1.3.2 (091e20ef0f, 2023-11-25)"
   inkscape:export-filename="../tema/grip.png"
   inkscape:export-xdpi="30.719999"
   inkscape:export-ydpi="30.719999"
   xmlns:inkscape="http://www.inkscape.org/namespaces/inkscape"
   xmlns:sodipodi="http://sodipodi.sourceforge.net/DTD/sodipodi-0.dtd"
   xmlns:xlink="http://www.w3.org/1999/xlink"
   xmlns="http://www.w3.org/2000/svg"
   xmlns:svg="http://www.w3.org/2000/svg">
  <sodipodi:namedview
     id="namedview1"
     pagecolor="#ffffff"
     bordercolor="#999999"
     borderopacity="1"
     inkscape:showpageshadow="0"
     inkscape:pageopacity="0"
     inkscape:pagecheckerboard="0"
     inkscape:deskcolor="#d1d1d1"
     inkscape:document-units="mm"
     inkscape:zoom="5.4517933"
     inkscape:cx="49.066424"
     inkscape:cy="50.900683"
     inkscape:window-width="1920"
     inkscape:window-height="1011"
     inkscape:window-x="0"
     inkscape:window-y="32"
     inkscape:window-maximized="1"
     inkscape:current-layer="layer1" />
  <defs
     id="defs1">
    <linearGradient
       id="swatch8"
       inkscape:swatch="solid">
      <stop
         style="stop-color:#000000;stop-opacity:1;"
         offset="0"
         id="stop8" />
    </linearGradient>
    <inkscape:path-effect
       effect="mirror_symmetry"
       start_point="13.227667,5.5971852"
       end_point="13.227692,15.642118"
       center_point="13.22768,10.619652"
       id="path-effect8"
       is_visible="true"
       lpeversion="1.2"
       lpesatellites=""
       mode="free"
       discard_orig_path="false"
       fuse_paths="true"
       oposite_fuse="true"
       split_items="false"
       split_open="false"
       link_styles="false" />
    <inkscape:path-effect
       effect="interpolate"
       id="path-effect7"
       is_visible="true"
       lpeversion="1"
       trajectory="m 19.407343,10.583075 -6.178951,0"
       equidistant_spacing="true"
       steps="7" />
    <linearGradient
       id="swatch5"
       inkscape:swatch="solid">
      <stop
         style="stop-color:#000000;stop-opacity:1;"
         offset="0"
         id="stop6" />
    </linearGradient>
    <linearGradient
       id="linearGradient2"
       inkscape:collect="always">
      <stop
         style="stop-color:#cdcdcd;stop-opacity:1;"
         offset="0"
         id="stop2" />
      <stop
         style="stop-color:#999999;stop-opacity:1;"
         offset="0.40000001"
         id="stop4" />
      <stop
         style="stop-color:#999999;stop-opacity:1;"
         offset="0.60000002"
         id="stop5" />
      <stop
         style="stop-color:#cdcdcd;stop-opacity:1;"
         offset="1"
         id="stop3" />
    </linearGradient>
    <inkscape:path-effect
       effect="fillet_chamfer"
       id="path-effect1"
       is_visible="true"
       lpeversion="1"
       nodesatellites_param="F,0,0,1,0,5.0270833,0,1 @ F,0,0,1,0,5.0270833,0,1 @ F,0,0,1,0,5.0270833,0,1 @ F,0,0,1,0,5.0270833,0,1 @ F,0,0,1,0,5.0270833,0,1 @ F,0,0,1,0,5.0270833,0,1 @ F,0,0,1,0,5.0270833,0,1 @ F,0,0,1,0,5.0270833,0,1"
       radius="19"
       unit="px"
       method="auto"
       mode="F"
       chamfer_steps="1"
       flexible="false"
       use_knot_distance="true"
       apply_no_radius="true"
       apply_with_radius="true"
       only_selected="false"
       hide_knots="false" />
    <filter
       inkscape:collect="always"
       style="color-interpolation-filters:sRGB"
       id="filter1"
       x="-0.058086495"
       y="-0.082466829"
       width="1.116173"
       height="1.1649337">
      <feGaussianBlur
         inkscape:collect="always"
         stdDeviation="0.61469598"
         id="feGaussianBlur1" />
    </filter>
    <clipPath
       clipPathUnits="userSpaceOnUse"
       id="clipPath2">
      <path
         id="path2"
         style="opacity:1;fill:#a8a8a8;fill-rule:evenodd;stroke-width:1.02437"
         d="M 0.27812611,5.0208111 0.2510406,5.5625217 a 100.54167,100.54167 0 0 0 -2e-8,10.0416223 l 0.0270856,0.541712 a 4.3040353,4.3040353 0 0 0 5.17324512,3.999308 l 2.8798792,-0.59766 a 24.177134,24.177134 0 0 1 9.8436285,0.0038 l 2.832864,0.590156 a 4.3007153,4.3007153 0 0 0 5.172464,-3.995556 l 0.02709,-0.541711 a 100.54179,100.54179 0 0 0 0,-10.0416227 L 26.180207,5.0208111 A 4.3006801,4.3006801 0 0 0 21.007751,1.025295 l -2.857168,0.5952433 a 24.13,24.13 0 0 1 -9.8428322,0 L 5.4505828,1.025295 A 4.3006804,4.3006804 0 0 0 0.27812611,5.0208111 Z" />
    </clipPath>
    <linearGradient
       inkscape:collect="always"
       xlink:href="#linearGradient2"
       id="linearGradient3"
       x1="0.12559867"
       y1="10.584927"
       x2="26.332739"
       y2="10.584927"
       gradientUnits="userSpaceOnUse" />
    <filter
       inkscape:collect="always"
       style="color-interpolation-filters:sRGB"
       id="filter8"
       x="-0.029446041"
       y="-0.038182197"
       width="1.0588921"
       height="1.0763644">
      <feGaussianBlur
         inkscape:collect="always"
         stdDeviation="0.21838394"
         id="feGaussianBlur8" />
    </filter>
  </defs>
  <g
     inkscape:label="Camada 1"
     inkscape:groupmode="layer"
     id="layer1">
    <path
       id="rect1"
       style="opacity:1;fill:#808080;fill-opacity:1;fill-rule:evenodd;stroke-width:1.02437"
       d="M 0.2781261,5.0208112 0.2510406,5.5625218 c -0.1672559,3.345118 -0.1672559,6.6965042 -2e-8,10.0416222 l 0.0270856,0.541712 c 0.13190466,2.638091 2.58696512,4.536038 5.17324522,3.999308 l 2.8798791,-0.59766 c 3.2467515,-0.67378 6.5973975,-0.672487 9.8436285,0.0038 l 2.832864,0.590156 c 2.585172,0.538555 5.040595,-1.358177 5.172464,-3.995556 l 0.02709,-0.541712 c 0.167256,-3.345118 0.167256,-6.6965042 0,-10.0416222 L 26.180207,5.0208112 C 26.048339,2.3834398 23.592911,0.48671995 21.007751,1.025295 l -2.857168,0.5952433 c -3.246096,0.6762699 -6.596736,0.6762699 -9.8428321,0 L 5.4505828,1.025295 C 2.8654221,0.48671991 0.40999467,2.3834395 0.2781261,5.0208112 Z"
       sodipodi:nodetypes="sssssccssssssssss" />
    <path
       id="rect1-2"
       style="opacity:1;mix-blend-mode:screen;fill:url(#linearGradient3);fill-rule:evenodd;stroke-width:0.970806;filter:url(#filter1)"
       d="m 0.67807432,5.4282678 -0.0262495,0.5020418 c -0.16209078,3.1001571 -0.16209078,6.2061234 0,9.3062804 l 0.0262495,0.502043 C 0.80590565,18.183538 3.1851502,19.942499 5.691562,19.445074 L 8.4825058,18.89118 c 3.1464922,-0.624414 6.3936652,-0.623189 9.5396412,0.0036 l 2.745381,0.546939 c 2.505338,0.499117 4.884933,-1.258718 5.01273,-3.702963 l 0.02625,-0.502043 c 0.162091,-3.100157 0.162091,-6.2061237 0,-9.306281 L 25.780258,5.4282678 C 25.652462,2.9840297 23.272862,1.2262051 20.767536,1.7253407 l -2.768934,0.5516541 c -3.145851,0.6267473 -6.393019,0.6267472 -9.5388704,0 L 5.6907974,1.7253407 C 3.1854705,1.226205 0.80587052,2.9840292 0.67807432,5.4282678 Z"
       clip-path="url(#clipPath2)"
       inkscape:export-filename="../tema/rect1-2.png"
       inkscape:export-xdpi="33.92205"
       inkscape:export-ydpi="33.92205"
       sodipodi:nodetypes="sssssccsssccsssss" />
    <path
       id="path5"
       style="color:#000000;mix-blend-mode:multiply;fill:#aeaeae;fill-opacity:1;stroke:none;stroke-width:0.1;stroke-linecap:round;stroke-dasharray:none;stroke-opacity:1;filter:url(#filter8);opacity:0.83618576"
       d="m 22.053434,3.7196697 c -0.04182,7.15e-5 -0.07541,0.04766 -0.07441,0.1054199 V 17.343644 c 5e-5,0.05675 0.03333,0.10275 0.07441,0.102836 0.04088,-4.77e-4 0.07385,-0.04636 0.0739,-0.102836 V 3.8250896 c 9.95e-4,-0.057482 -0.03228,-0.1049499 -0.0739,-0.1054199 z m -17.6515433,4.39e-5 c 0.04182,7.13e-5 0.07541,0.04766 0.07441,0.1054196 l 6.73e-5,13.5185548 c -4.97e-5,0.05675 -0.03333,0.10275 -0.07441,0.102836 -0.04088,-4.77e-4 -0.07385,-0.04636 -0.0739,-0.102836 L 4.3279912,3.8251339 c -9.953e-4,-0.057482 0.03228,-0.1049501 0.0739,-0.1054203 z M 20.582637,4.0112112 c -0.0418,6.89e-5 -0.07538,0.045432 -0.07441,0.1005106 V 17.05684 c 5.2e-5,0.05414 0.03333,0.09802 0.07441,0.0981 0.04088,-4.55e-4 0.07385,-0.04422 0.0739,-0.0981 V 4.1117219 c 9.62e-4,-0.054814 -0.0323,-0.1000618 -0.0739,-0.1005107 z m -14.7099476,3.66e-5 c 0.041797,6.87e-5 0.075379,0.045431 0.074411,0.1005102 l 6.45e-5,12.945118 c -5.19e-5,0.05414 -0.033331,0.09802 -0.074409,0.0981 -0.040878,-4.55e-4 -0.073849,-0.04422 -0.073901,-0.0981 L 5.7987899,4.1117588 C 5.797827,4.0569448 5.8310928,4.0116969 5.8726894,4.0112478 Z M 19.111839,4.3027527 c -0.04177,6.63e-5 -0.07535,0.043203 -0.07441,0.095601 v 12.371682 c 5.5e-5,0.05152 0.03333,0.09328 0.07441,0.09336 0.04088,-4.33e-4 0.07385,-0.04209 0.0739,-0.09336 V 4.3983541 c 9.31e-4,-0.052146 -0.03233,-0.095174 -0.0739,-0.095601 z M 7.3434882,4.302782 c 0.041773,6.61e-5 0.075347,0.043203 0.07441,0.095601 l 6.16e-5,12.3716821 c -5.41e-5,0.05152 -0.033333,0.09328 -0.07441,0.09336 -0.040877,-4.33e-4 -0.073847,-0.04209 -0.0739,-0.09336 L 7.2695887,4.3983838 c -9.306e-4,-0.052146 0.032326,-0.095174 0.0739,-0.095602 z M 17.641042,4.5942942 c -0.04175,6.37e-5 -0.07531,0.040974 -0.07441,0.090692 V 16.483232 c 5.6e-5,0.04891 0.03334,0.08855 0.07441,0.08862 0.04087,-4.11e-4 0.07385,-0.03995 0.0739,-0.08862 V 4.6849864 c 8.98e-4,-0.049478 -0.03235,-0.090285 -0.0739,-0.090692 z m -8.826755,2.2e-5 c 0.04175,6.34e-5 0.075315,0.040974 0.07441,0.090692 l 5.87e-5,11.7982462 c -5.63e-5,0.04891 -0.033335,0.08855 -0.07441,0.08862 -0.040875,-4.11e-4 -0.073845,-0.03995 -0.0739,-0.08862 L 8.7403875,4.6850087 c -8.983e-4,-0.049478 0.032349,-0.090286 0.073899,-0.090693 z m 7.355958,0.2915195 c -0.04173,6.11e-5 -0.07528,0.038746 -0.07441,0.085783 V 16.196429 c 5.8e-5,0.0463 0.03334,0.08382 0.07441,0.08389 0.04087,-3.9e-4 0.07384,-0.03781 0.0739,-0.08389 V 4.9716186 c 8.65e-4,-0.04681 -0.03237,-0.085397 -0.0739,-0.085783 z m -5.885159,1.47e-5 c 0.04173,6.08e-5 0.07528,0.038746 0.07441,0.085782 l 5.6e-5,11.2248104 c -5.8e-5,0.0463 -0.03334,0.08382 -0.07441,0.08389 -0.04087,-3.9e-4 -0.07384,-0.03781 -0.0739,-0.08388 l -5.6e-5,-11.2248104 c -8.66e-4,-0.04681 0.03237,-0.085397 0.0739,-0.085783 z m 4.414361,0.2915268 c -0.0417,5.85e-5 -0.07525,0.036518 -0.07441,0.080873 V 15.909625 c 6.1e-5,0.04368 0.03334,0.07908 0.07441,0.07915 0.04087,-3.67e-4 0.07384,-0.03568 0.0739,-0.07915 V 5.2582509 c 8.34e-4,-0.044142 -0.0324,-0.080509 -0.0739,-0.080874 z m -2.943562,7.4e-6 c 0.0417,5.82e-5 0.07525,0.036517 0.07441,0.080873 l 5.3e-5,10.6513745 c -6.1e-5,0.04368 -0.03334,0.07908 -0.07441,0.07915 -0.04087,-3.68e-4 -0.07384,-0.03568 -0.0739,-0.07915 l -5.3e-5,-10.6513734 c -8.34e-4,-0.044142 0.0324,-0.080509 0.0739,-0.080874 z M 13.226563,5.46875 c -0.04148,3.436e-4 -0.07502,0.034698 -0.07422,0.076172 V 15.623047 c 6e-5,0.04087 0.03335,0.07387 0.07422,0.07422 0,0 0.002,0 0.002,0 0.04087,-3.46e-4 0.07416,-0.03335 0.07422,-0.07422 V 5.5449219 c 8.01e-4,-0.041474 -0.03274,-0.075829 -0.07422,-0.076172 z"
       inkscape:path-effect="#path-effect7;#path-effect8"
       inkscape:original-d="m 22.053434,3.7196697 c -0.04182,7.15e-5 -0.07541,0.04766 -0.07441,0.1054199 V 17.343644 c 5e-5,0.05675 0.03333,0.10275 0.07441,0.102836 0.04088,-4.77e-4 0.07385,-0.04636 0.0739,-0.102836 V 3.8250896 c 9.95e-4,-0.057482 -0.03228,-0.1049499 -0.0739,-0.1054199 z M 13.22865,5.4689168 c -0.04168,5.58e-5 -0.07522,0.034289 -0.07441,0.075964 V 15.622819 c 6.3e-5,0.04107 0.03334,0.07435 0.07441,0.07441 0.04087,-3.46e-4 0.07384,-0.03354 0.0739,-0.07441 V 5.5448812 c 8.01e-4,-0.041474 -0.03242,-0.075621 -0.0739,-0.075964 z"
       sodipodi:nodetypes="cccccccccccccc"
       inkscape:label="linhas" />
    <path
       id="path8"
       style="display:none;opacity:0.345955;mix-blend-mode:screen;fill:#e8e8e8;fill-opacity:1;fill-rule:evenodd;stroke-width:1.02437"
       d="M 0.2781261,5.0208112 0.2510406,5.5625218 c -0.1672559,3.345118 -0.1672559,6.6965042 -2e-8,10.0416222 l 0.0270856,0.541712 c 0.13190466,2.638091 2.58696512,4.536038 5.17324522,3.999308 l 2.8798791,-0.59766 c 3.2467515,-0.67378 6.5973975,-0.672487 9.8436285,0.0038 l 2.832864,0.590156 c 2.585172,0.538555 5.040595,-1.358177 5.172464,-3.995556 l 0.02709,-0.541712 c 0.167256,-3.345118 0.167256,-6.6965042 0,-10.0416222 L 26.180207,5.0208112 C 26.048339,2.3834398 23.592911,0.48671995 21.007751,1.025295 l -2.857168,0.5952433 c -3.246096,0.6762699 -6.596736,0.6762699 -9.8428321,0 L 5.4505828,1.025295 C 2.8654221,0.48671991 0.40999467,2.3834395 0.2781261,5.0208112 Z"
       sodipodi:nodetypes="sssssccssssssssss"
       inkscape:label="highlight" />
    <path
       id="path9"
       style="display:inline;opacity:0.75175846;mix-blend-mode:multiply;fill:#253149;fill-opacity:1;fill-rule:evenodd;stroke-width:1.02437"
       d="M 0.2781261,5.0208112 0.2510406,5.5625218 c -0.1672559,3.345118 -0.1672559,6.6965042 -2e-8,10.0416222 l 0.0270856,0.541712 c 0.13190466,2.638091 2.58696512,4.536038 5.17324522,3.999308 l 2.8798791,-0.59766 c 3.2467515,-0.67378 6.5973975,-0.672487 9.8436285,0.0038 l 2.832864,0.590156 c 2.585172,0.538555 5.040595,-1.358177 5.172464,-3.995556 l 0.02709,-0.541712 c 0.167256,-3.345118 0.167256,-6.6965042 0,-10.0416222 L 26.180207,5.0208112 C 26.048339,2.3834398 23.592911,0.48671995 21.007751,1.025295 l -2.857168,0.5952433 c -3.246096,0.6762699 -6.596736,0.6762699 -9.8428321,0 L 5.4505828,1.025295 C 2.8654221,0.48671991 0.40999467,2.3834395 0.2781261,5.0208112 Z"
       sodipodi:nodetypes="sssssccssssssssss"
       inkscape:label="block" />
  </g>
</svg>
